<svg xmlns="http://www.w3.org/2000/svg" viewBox="0 0 960 120" fill="none">
  <rect width="960" height="120" rx="8" fill="#1e1e1e" stroke="#2a2a2a"/>
  <defs>
    <marker id="arrow" markerWidth="8" markerHeight="8" refX="6" refY="3" orient="auto">
      <path d="M0,0 L6,3 L0,6 Z" fill="#00e5a0"/>
    </marker>
  </defs>
  <g font-family="Inter, sans-serif" font-size="11" fill="#f0f0f0">
    <rect x="12" y="40" width="80" height="40" rx="4" fill="#111" stroke="#00e5a0"/>
    <text x="52" y="64" text-anchor="middle" fill="#888">Gmail</text>
    <line x1="92" y1="60" x2="112" y2="60" stroke="#00e5a0" marker-end="url(#arrow)"/>
    <rect x="112" y="40" width="96" height="40" rx="4" fill="#111" stroke="#00e5a0"/>
    <text x="160" y="64" text-anchor="middle" fill="#888">Gemini Triage</text>
    <line x1="208" y1="60" x2="228" y2="60" stroke="#00e5a0" marker-end="url(#arrow)"/>
    <rect x="228" y="40" width="80" height="40" rx="4" fill="#111" stroke="#00e5a0"/>
    <text x="268" y="64" text-anchor="middle" fill="#888">HubSpot</text>
    <line x1="308" y1="60" x2="328" y2="60" stroke="#00e5a0" marker-end="url(#arrow)"/>
    <rect x="328" y="40" width="80" height="40" rx="4" fill="#111" stroke="#00b8ff"/>
    <text x="368" y="64" text-anchor="middle" fill="#888">Qdrant</text>
    <line x1="408" y1="60" x2="428" y2="60" stroke="#00e5a0" marker-end="url(#arrow)"/>
    <rect x="428" y="40" width="88" height="40" rx="4" fill="#111" stroke="#f472b6"/>
    <text x="472" y="58" text-anchor="middle" fill="#888">Cohere</text>
    <text x="472" y="72" text-anchor="middle" fill="#555" font-size="9">rerank</text>
    <line x1="516" y1="60" x2="536" y2="60" stroke="#00e5a0" marker-end="url(#arrow)"/>
    <rect x="536" y="40" width="96" height="40" rx="4" fill="#111" stroke="#00e5a0"/>
    <text x="584" y="58" text-anchor="middle" fill="#888">Mail Agent</text>
    <text x="584" y="72" text-anchor="middle" fill="#555" font-size="9">confidence gate</text>
    <line x1="632" y1="60" x2="652" y2="60" stroke="#00e5a0" marker-end="url(#arrow)"/>
    <rect x="652" y="40" width="96" height="40" rx="4" fill="#111" stroke="#00e5a0"/>
    <text x="700" y="58" text-anchor="middle" fill="#888">Telegram</text>
    <text x="700" y="72" text-anchor="middle" fill="#555" font-size="9">HITL approve</text>
    <line x1="748" y1="60" x2="768" y2="60" stroke="#00e5a0" marker-end="url(#arrow)"/>
    <rect x="768" y="40" width="88" height="40" rx="4" fill="#111" stroke="#00e5a0"/>
    <text x="812" y="64" text-anchor="middle" fill="#888">Gmail Reply</text>
  </g>
  <text x="480" y="20" text-anchor="middle" font-family="Syne, sans-serif" font-size="12" font-weight="700" fill="#00e5a0">AI Support Triage &amp; RAG + Cohere Rerank</text>
</svg>
